<?xml version="1.0" encoding="utf-8"?>
<!-- Generator: Adobe Illustrator 23.0.2, SVG Export Plug-In . SVG Version: 6.00 Build 0)  -->
<svg version="1.1" id="Layer_1" xmlns="http://www.w3.org/2000/svg" xmlns:xlink="http://www.w3.org/1999/xlink" x="0px" y="0px"
	 viewBox="0 0 425.2 517.4" style="enable-background:new 0 0 425.2 517.4;" xml:space="preserve">
<style type="text/css">
	.st0{fill:#319B42;}
	.st1{fill:#FEDD00;}
	.st2{enable-background:new    ;}
</style>
<g id="MMD_AFRICA">
	<ellipse class="st0" cx="212.7" cy="209.4" rx="209.4" ry="209.4"/>
	<path class="st1" d="M346.3,151.2h-61.8L265.3,212l-19.2-60.8h-59.8L167.2,212L148,151.2h-47.5v116.3h35.7v-47.2l17.2,47.2h27.8
		l17.2-47.2v47.2H234v-47.2l17.2,47.2h27.8l17.1-47.2v47.2h48.2c-32.1,72.6-117,105.4-189.6,73.3s-105.4-117-73.3-189.6
		S198.4,45.9,271,78c24.3,10.7,45.1,28,60.2,49.8h34.3V93.5C301.5,9.2,181.3-7.3,96.9,56.7S-3.8,240.9,60.1,325.3
		S244.4,426,328.7,362c47.7-36.2,75.8-92.7,75.8-152.7C404.5,177.3,378.4,151.2,346.3,151.2C346.3,151.2,346.3,151.2,346.3,151.2z
		 M348.8,229.2h-17.5v-40h17.5c11,0,20,9,20,20S359.8,229.2,348.8,229.2L348.8,229.2z"/>
	<path class="st1" d="M375.6,127.7v-8.6h-3.2V118h7.8v1.2h-3.2v8.6H375.6z"/>
	<path class="st1" d="M381.4,127.7V118h2l2.3,6.9c0.2,0.6,0.4,1.1,0.5,1.4c0.1-0.4,0.3-0.9,0.5-1.6l2.3-6.8h1.7v9.8h-1.2v-8.2
		l-2.8,8.2h-1.2l-2.8-8.3v8.3H381.4z"/>
	<g class="st2">
		<path class="st0" d="M114.5,445c2.7,0,4.3,0.5,4.3,0.5l18.1,50.8c0,0-1.3,0.5-4,0.5c-2.4,0-3.6-0.5-3.6-0.5l-4.5-12.7h-21.3
			l-4.5,12.7c0,0-1.2,0.5-3.5,0.5c-2.2,0-3.4-0.5-3.4-0.5l18.1-50.8C110.2,445.5,112,445,114.5,445z M114.2,453c0,0-0.6,2.9-1.9,6.5
			l-6.6,18.2h17.1l-6.6-18.2c-1.3-3.7-1.9-6.5-1.9-6.5H114.2z"/>
		<path class="st0" d="M153.2,496.4c0,0-1.2,0.5-3.7,0.5c-2.4,0-3.6-0.5-3.6-0.5V445h28.7c0.4,0.8,0.6,1.8,0.6,3
			c0,1.2-0.2,2.2-0.6,3h-21.3v17.6h18.9c0.4,0.7,0.6,1.7,0.6,2.9s-0.2,2.2-0.6,3.1h-18.9V496.4z"/>
		<path class="st0" d="M204,445c9.4,0,15.5,6.1,15.5,15.2c0,7.1-3.8,12.5-10.2,14.4l12.5,21.7c0,0-1.5,0.5-4.3,0.5
			c-2.7,0-4.2-0.5-4.2-0.5l-12-21h-8.5v21c0,0-1.2,0.5-3.6,0.5c-2.7,0-3.7-0.5-3.7-0.5V445H204z M192.9,469.2H203
			c5.6,0,8.8-3.3,8.8-9c0-5.8-3.2-9.1-8.8-9.1h-10.2V469.2z"/>
		<path class="st0" d="M232,445.5c0,0,1.2-0.5,3.6-0.5c2.5,0,3.7,0.5,3.7,0.5v50.8c0,0-1.3,0.5-3.7,0.5c-2.6,0-3.7-0.5-3.7-0.5
			V445.5z"/>
		<path class="st0" d="M272.2,444.3c8,0,12.3,2.4,12.3,2.4c0.1,2.4-0.9,4-2.2,5.5c0,0-4.2-1.7-9.3-1.7c-8.4,0-14.2,4.4-14.2,20.4
			c0,16.1,5.8,20.2,14.2,20.2c5.7,0,10-1.7,10-1.7c1.4,1.4,2.2,3.5,2.2,5.6c0,0-4.7,2.4-13.1,2.4c-13.8,0-21-9.1-21-26.6
			C251.3,453.5,258.4,444.3,272.2,444.3z"/>
		<path class="st0" d="M312.5,445c2.7,0,4.3,0.5,4.3,0.5l18.1,50.8c0,0-1.3,0.5-4,0.5c-2.4,0-3.6-0.5-3.6-0.5l-4.5-12.7h-21.3
			l-4.5,12.7c0,0-1.2,0.5-3.5,0.5c-2.2,0-3.4-0.5-3.4-0.5l18.1-50.8C308.1,445.5,309.9,445,312.5,445z M312.1,453
			c0,0-0.6,2.9-1.9,6.5l-6.6,18.2h17.1l-6.6-18.2c-1.3-3.7-1.9-6.5-1.9-6.5H312.1z"/>
	</g>
</g>
</svg>
