<?xml version="1.0" encoding="utf-8"?>
<!-- Generator: Adobe Illustrator 23.0.2, SVG Export Plug-In . SVG Version: 6.00 Build 0)  -->
<svg version="1.1" id="Layer_1" xmlns="http://www.w3.org/2000/svg" xmlns:xlink="http://www.w3.org/1999/xlink" x="0px" y="0px"
	 viewBox="0 0 425.2 517.4" style="enable-background:new 0 0 425.2 517.4;" xml:space="preserve">
<style type="text/css">
	.st0{fill:#319B42;}
	.st1{fill:#FEDD00;}
	.st2{enable-background:new    ;}
</style>
<g id="MMD_AUSTRALIA">
	<g id="MMD_LOGO">
		<path class="st0" d="M3.3,209.7C3.3,94,97.1,0.2,212.7,0.2S422.1,94,422.1,209.7c0,115.7-93.7,209.5-209.4,209.5
			S3.3,325.4,3.3,209.7"/>
		<path class="st1" d="M346.4,151.5h-61.8l-19.2,60.8l-19.2-60.8h-59.8l-19.2,60.8L148,151.5h-47.6v116.4h35.7v-47.2l17.2,47.2h27.8
			l17.2-47.2v47.2H234v-47.2l17.2,47.2h27.8l17.2-47.2v47.2h48.2c-10.7,24.3-28,45.1-49.9,60.2c-65.4,45.1-154.9,28.7-200-36.7
			c-45.1-65.4-28.7-154.9,36.7-200c65.4-45.1,154.9-28.7,200,36.7h34.4V93.8C301.5,9.4,181.2-7.1,96.9,56.9
			C12.5,121-4,241.3,60.1,325.6c64,84.4,184.3,100.8,268.7,36.8c47.8-36.3,75.8-92.8,75.8-152.7
			C404.6,177.6,378.5,151.5,346.4,151.5 M348.9,229.5h-17.5v-40h17.5c11,0,20,9,20,20C368.9,220.6,359.9,229.5,348.9,229.5"/>
		<path class="st1" d="M371.9,120.4c0-0.7,0.1-1.4,0.3-2c0.2-0.7,0.4-1.3,0.8-1.8c0.3-0.6,0.7-1.1,1.2-1.6c0.5-0.5,1-0.9,1.6-1.2
			c0.6-0.3,1.2-0.6,1.8-0.8c0.7-0.2,1.3-0.3,2-0.3c0.7,0,1.4,0.1,2,0.3c0.7,0.2,1.3,0.4,1.8,0.8c0.6,0.3,1.1,0.7,1.6,1.2
			c0.5,0.5,0.9,1,1.2,1.6c0.3,0.6,0.6,1.2,0.8,1.8c0.2,0.7,0.3,1.3,0.3,2c0,0.7-0.1,1.4-0.3,2c-0.2,0.7-0.4,1.3-0.8,1.8
			c-0.3,0.6-0.7,1.1-1.2,1.6c-0.5,0.5-1,0.9-1.6,1.2c-0.6,0.3-1.2,0.6-1.8,0.8c-0.7,0.2-1.3,0.3-2,0.3c-0.7,0-1.4-0.1-2-0.3
			c-0.7-0.2-1.3-0.4-1.8-0.8c-0.6-0.3-1.1-0.7-1.6-1.2c-0.5-0.5-0.9-1-1.2-1.6c-0.3-0.6-0.6-1.2-0.8-1.8
			C372,121.7,371.9,121.1,371.9,120.4 M373.1,120.4c0,0.9,0.2,1.7,0.5,2.5c0.3,0.8,0.8,1.5,1.4,2.1c0.6,0.6,1.3,1.1,2,1.4
			c0.8,0.3,1.6,0.5,2.5,0.5c0.9,0,1.7-0.2,2.5-0.5c0.8-0.3,1.5-0.8,2.1-1.4c0.6-0.6,1-1.3,1.4-2.1c0.3-0.8,0.5-1.6,0.5-2.5
			c0-0.9-0.2-1.7-0.5-2.5c-0.3-0.8-0.8-1.5-1.4-2.1c-0.6-0.6-1.3-1.1-2.1-1.4c-0.8-0.3-1.6-0.5-2.5-0.5c-0.9,0-1.7,0.2-2.5,0.5
			c-0.8,0.3-1.5,0.8-2,1.4c-0.6,0.6-1,1.3-1.4,2.1C373.3,118.6,373.1,119.5,373.1,120.4 M378.2,124.5h-1.3v-8.6h2.5
			c1.1,0,1.9,0.2,2.4,0.6c0.5,0.4,0.8,1,0.8,1.9c0,0.2,0,0.3-0.1,0.6c-0.1,0.2-0.1,0.4-0.3,0.6c-0.1,0.2-0.3,0.4-0.6,0.6
			c-0.2,0.2-0.5,0.3-0.9,0.4l2.1,3.8h-1.4l-1.8-3.6h-1.7V124.5z M378.2,119.9h1c0.8,0,1.3-0.1,1.7-0.4c0.4-0.2,0.6-0.7,0.6-1.2
			c0-0.6-0.2-1-0.6-1.2c-0.4-0.2-1-0.3-1.8-0.3h-0.9V119.9z"/>
	</g>
	<g class="st2">
		<path class="st0" d="M51.4,445c2.7,0,4.3,0.5,4.3,0.5l18.1,50.8c0,0-1.3,0.5-4,0.5c-2.4,0-3.6-0.5-3.6-0.5l-4.5-12.7H40.4
			l-4.5,12.7c0,0-1.2,0.5-3.5,0.5c-2.2,0-3.4-0.5-3.4-0.5L47,445.5C47,445.5,48.8,445,51.4,445z M51,453c0,0-0.6,2.9-1.9,6.5
			l-6.6,18.2h17.1l-6.6-18.2c-1.3-3.7-1.9-6.5-1.9-6.5H51z"/>
		<path class="st0" d="M116.1,479.3c0,11.7-7.2,18.3-18.2,18.3c-10.9,0-18.1-6.7-18.1-18.3v-33.8c0,0,1.2-0.5,3.6-0.5
			c2.4,0,3.7,0.5,3.7,0.5v34.9c0,6.9,4,10.9,10.9,10.9c7,0,10.9-4,10.9-10.9v-34.9c0,0,1.2-0.5,3.5-0.5c2.4,0,3.7,0.5,3.7,0.5V479.3
			z"/>
		<path class="st0" d="M143.7,444.3c8.6,0,14.1,2,14.1,2c0,2.1-0.6,4.3-2,5.8c0,0-4.9-1.6-11.1-1.6c-7.6,0-11.3,3-11.3,8.2
			c0,5.5,6.2,6.8,12.9,9c6.7,2.3,13.5,5.4,13.5,14.8c0,9.6-6.3,15-18.1,15c-9.5,0-15.6-3-15.6-3c-0.1-1.9,0.6-4.2,1.7-5.8
			c0,0,6.8,2.2,13.5,2.2c7.4,0,10.9-2.8,10.9-8.2c0-5.1-4.1-6.9-9.1-8.5c-7.5-2.5-17.1-4.3-17.1-15.2
			C126.1,450.2,131.9,444.3,143.7,444.3z"/>
		<path class="st0" d="M200,445c0,0,0.6,1.3,0.6,3.1c0,1.9-0.6,3.2-0.6,3.2h-13.4v45c0,0-1.3,0.5-3.7,0.5c-2.6,0-3.7-0.5-3.7-0.5
			v-45h-13.8c0,0-0.6-1.2-0.6-3.2c0-1.8,0.6-3.2,0.6-3.2H200z"/>
		<path class="st0" d="M227.3,445c9.4,0,15.5,6.1,15.5,15.2c0,7.1-3.8,12.5-10.2,14.4l12.5,21.7c0,0-1.5,0.5-4.3,0.5
			c-2.7,0-4.2-0.5-4.2-0.5l-12-21h-8.5v21c0,0-1.2,0.5-3.6,0.5c-2.7,0-3.7-0.5-3.7-0.5V445H227.3z M216.2,469.2h10.2
			c5.6,0,8.8-3.3,8.8-9c0-5.8-3.2-9.1-8.8-9.1h-10.2V469.2z"/>
		<path class="st0" d="M271,445c2.7,0,4.3,0.5,4.3,0.5l18.1,50.8c0,0-1.3,0.5-4,0.5c-2.4,0-3.6-0.5-3.6-0.5l-4.5-12.7h-21.3
			l-4.5,12.7c0,0-1.2,0.5-3.5,0.5c-2.2,0-3.4-0.5-3.4-0.5l18.1-50.8C266.7,445.5,268.5,445,271,445z M270.7,453c0,0-0.6,2.9-1.9,6.5
			l-6.6,18.2h17.1l-6.6-18.2c-1.3-3.7-1.9-6.5-1.9-6.5H270.7z"/>
		<path class="st0" d="M301,445.5c0,0,1.2-0.5,3.6-0.5c2.5,0,3.7,0.5,3.7,0.5v45h21.5c0.4,0.9,0.6,2,0.6,3.2c0,1.2-0.2,2.2-0.6,3.2
			H301V445.5z"/>
		<path class="st0" d="M338.3,445.5c0,0,1.2-0.5,3.6-0.5c2.5,0,3.7,0.5,3.7,0.5v50.8c0,0-1.3,0.5-3.7,0.5c-2.6,0-3.7-0.5-3.7-0.5
			V445.5z"/>
		<path class="st0" d="M375.6,445c2.7,0,4.3,0.5,4.3,0.5l18.1,50.8c0,0-1.3,0.5-4,0.5c-2.4,0-3.6-0.5-3.6-0.5l-4.5-12.7h-21.3
			l-4.5,12.7c0,0-1.2,0.5-3.5,0.5c-2.2,0-3.4-0.5-3.4-0.5l18.1-50.8C371.3,445.5,373.1,445,375.6,445z M375.3,453
			c0,0-0.6,2.9-1.9,6.5l-6.6,18.2h17.1l-6.6-18.2c-1.3-3.7-1.9-6.5-1.9-6.5H375.3z"/>
	</g>
</g>
</svg>
