<?xml version="1.0" encoding="utf-8"?>
<!-- Generator: Adobe Illustrator 23.0.2, SVG Export Plug-In . SVG Version: 6.00 Build 0)  -->
<svg version="1.1" id="Layer_1" xmlns="http://www.w3.org/2000/svg" xmlns:xlink="http://www.w3.org/1999/xlink" x="0px" y="0px"
	 viewBox="0 0 425.2 517.4" style="enable-background:new 0 0 425.2 517.4;" xml:space="preserve">
<style type="text/css">
	.st0{fill:#319B42;}
	.st1{fill:#FEDD00;}
	.st2{enable-background:new    ;}
</style>
<g id="MMD_CHINA">
	<g class="st2">
		<path class="st0" d="M132.5,444.3c8,0,12.3,2.4,12.3,2.4c0.1,2.4-0.9,4-2.2,5.5c0,0-4.2-1.7-9.3-1.7c-8.4,0-14.2,4.4-14.2,20.4
			c0,16.1,5.8,20.2,14.2,20.2c5.7,0,10-1.7,10-1.7c1.4,1.4,2.2,3.5,2.2,5.6c0,0-4.7,2.4-13.1,2.4c-13.8,0-21-9.1-21-26.6
			C111.5,453.5,118.7,444.3,132.5,444.3z"/>
		<path class="st0" d="M184.5,445.5c0,0,1.3-0.5,3.7-0.5c2.4,0,3.7,0.5,3.7,0.5v50.8c0,0-1.2,0.5-3.6,0.5c-2.7,0-3.7-0.5-3.7-0.5
			v-22.9h-21.6v22.9c0,0-1.3,0.5-3.7,0.5c-2.6,0-3.7-0.5-3.7-0.5v-50.8c0,0,1.2-0.5,3.6-0.5c2.4,0,3.7,0.5,3.7,0.5v21.6h21.6V445.5z
			"/>
		<path class="st0" d="M206.1,445.5c0,0,1.2-0.5,3.6-0.5c2.5,0,3.7,0.5,3.7,0.5v50.8c0,0-1.3,0.5-3.7,0.5c-2.6,0-3.7-0.5-3.7-0.5
			V445.5z"/>
		<path class="st0" d="M238.4,463.6c-2.7-4.7-4.2-9.3-4.2-9.3h-0.3c0,0,0.5,4.8,0.5,12.1v30c0,0-1.1,0.5-3.5,0.5
			c-2.3,0-3.3-0.5-3.3-0.5v-50.8c0,0,1.5-0.5,4.4-0.5c2.9,0,4.3,0.5,4.3,0.5l17.9,32.5c2.6,4.7,4.5,9.6,4.5,9.6h0.2
			c0,0-0.5-5.3-0.5-12v-30c0,0,1.1-0.5,3.5-0.5s3.3,0.5,3.3,0.5v50.8c0,0-1.4,0.5-4.2,0.5c-2.9,0-4.4-0.5-4.4-0.5L238.4,463.6z"/>
		<path class="st0" d="M296.5,445c2.7,0,4.3,0.5,4.3,0.5l18.1,50.8c0,0-1.3,0.5-4,0.5c-2.4,0-3.6-0.5-3.6-0.5l-4.5-12.7h-21.3
			l-4.5,12.7c0,0-1.2,0.5-3.5,0.5c-2.2,0-3.4-0.5-3.4-0.5l18.1-50.8C292.2,445.5,294,445,296.5,445z M296.1,453c0,0-0.6,2.9-1.9,6.5
			l-6.6,18.2h17.1l-6.6-18.2c-1.3-3.7-1.9-6.5-1.9-6.5H296.1z"/>
	</g>
	<g id="MMD_LOGO_1_">
		<path class="st0" d="M3.2,209.7C3.2,94,97,0.2,212.6,0.2S422,94,422,209.7c0,115.7-93.7,209.5-209.4,209.5S3.2,325.4,3.2,209.7"/>
		<path class="st1" d="M346.3,151.5h-61.8l-19.2,60.8l-19.2-60.8h-59.8l-19.2,60.8l-19.2-60.8h-47.6v116.4H136v-47.2l17.2,47.2H181
			l17.2-47.2v47.2h35.7v-47.2l17.2,47.2h27.8l17.2-47.2v47.2h48.2c-10.7,24.3-28,45.1-49.9,60.2c-65.4,45.1-154.9,28.7-200-36.7
			C49.2,226,65.7,136.4,131,91.3c65.4-45.1,154.9-28.7,200,36.7h34.4V93.8C301.4,9.4,181.1-7.1,96.8,56.9
			C12.4,121-4.1,241.3,60,325.6c64,84.4,184.3,100.8,268.7,36.8c47.8-36.3,75.8-92.8,75.8-152.7
			C404.5,177.6,378.4,151.5,346.3,151.5 M348.8,229.5h-17.5v-40h17.5c11,0,20,9,20,20C368.8,220.6,359.8,229.5,348.8,229.5"/>
		<path class="st1" d="M371.8,120.4c0-0.7,0.1-1.4,0.3-2c0.2-0.7,0.4-1.3,0.8-1.8c0.3-0.6,0.7-1.1,1.2-1.6c0.5-0.5,1-0.9,1.6-1.2
			c0.6-0.3,1.2-0.6,1.8-0.8c0.7-0.2,1.3-0.3,2-0.3c0.7,0,1.4,0.1,2,0.3c0.7,0.2,1.3,0.4,1.8,0.8c0.6,0.3,1.1,0.7,1.6,1.2
			c0.5,0.5,0.9,1,1.2,1.6c0.3,0.6,0.6,1.2,0.8,1.8c0.2,0.7,0.3,1.3,0.3,2c0,0.7-0.1,1.4-0.3,2c-0.2,0.7-0.4,1.3-0.8,1.8
			c-0.3,0.6-0.7,1.1-1.2,1.6c-0.5,0.5-1,0.9-1.6,1.2c-0.6,0.3-1.2,0.6-1.8,0.8c-0.7,0.2-1.3,0.3-2,0.3c-0.7,0-1.4-0.1-2-0.3
			c-0.7-0.2-1.3-0.4-1.8-0.8c-0.6-0.3-1.1-0.7-1.6-1.2c-0.5-0.5-0.9-1-1.2-1.6c-0.3-0.6-0.6-1.2-0.8-1.8
			C371.9,121.7,371.8,121.1,371.8,120.4 M373,120.4c0,0.9,0.2,1.7,0.5,2.5c0.3,0.8,0.8,1.5,1.4,2.1c0.6,0.6,1.3,1.1,2,1.4
			c0.8,0.3,1.6,0.5,2.5,0.5c0.9,0,1.7-0.2,2.5-0.5c0.8-0.3,1.5-0.8,2.1-1.4c0.6-0.6,1-1.3,1.4-2.1c0.3-0.8,0.5-1.6,0.5-2.5
			c0-0.9-0.2-1.7-0.5-2.5c-0.3-0.8-0.8-1.5-1.4-2.1c-0.6-0.6-1.3-1.1-2.1-1.4c-0.8-0.3-1.6-0.5-2.5-0.5c-0.9,0-1.7,0.2-2.5,0.5
			c-0.8,0.3-1.5,0.8-2,1.4c-0.6,0.6-1,1.3-1.4,2.1C373.2,118.6,373,119.5,373,120.4 M378.1,124.5h-1.3v-8.6h2.5
			c1.1,0,1.9,0.2,2.4,0.6c0.5,0.4,0.8,1,0.8,1.9c0,0.2,0,0.3-0.1,0.6c-0.1,0.2-0.1,0.4-0.3,0.6c-0.1,0.2-0.3,0.4-0.6,0.6
			c-0.2,0.2-0.5,0.3-0.9,0.4l2.1,3.8h-1.4l-1.8-3.6h-1.7V124.5z M378.1,119.9h1c0.8,0,1.3-0.1,1.7-0.4c0.4-0.2,0.6-0.7,0.6-1.2
			c0-0.6-0.2-1-0.6-1.2c-0.4-0.2-1-0.3-1.8-0.3h-0.9V119.9z"/>
	</g>
</g>
</svg>
