<?xml version="1.0" encoding="utf-8"?>
<!-- Generator: Adobe Illustrator 19.1.0, SVG Export Plug-In . SVG Version: 6.00 Build 0)  -->
<!DOCTYPE svg PUBLIC "-//W3C//DTD SVG 1.1//EN" "http://www.w3.org/Graphics/SVG/1.1/DTD/svg11.dtd">
<svg version="1.1" id="YELLOW_x5F_C" xmlns="http://www.w3.org/2000/svg" xmlns:xlink="http://www.w3.org/1999/xlink" x="0px"
	 y="0px" viewBox="0 0 425.2 425.2" style="enable-background:new 0 0 425.2 425.2;" xml:space="preserve">
<style type="text/css">
	.st0{fill:#319B42;}
	.st1{fill:#FEDD00;}
</style>
<ellipse class="st0" cx="212.7" cy="212" rx="209.3" ry="209.4"/>
<path class="st1" d="M346.3,153.8h-61.8l-19.2,60.8l-19.2-60.8h-59.8l-19.2,60.8L148,153.8h-47.6v116.3h35.7v-47.2l17.2,47.2h27.8
	l17.2-47.2v47.2H234v-47.2l17.2,47.2h27.8l17.2-47.2v47.2h48.2c-10.7,24.3-28,45.1-49.8,60.2c-65.3,45.1-154.9,28.6-199.9-36.7
	c-45.1-65.3-28.6-154.9,36.7-199.9C196.5,48.6,286,65,331.1,130.4h34.3V96.1C301.5,11.8,181.2-4.7,96.9,59.3
	c-84.3,64-100.8,184.2-36.8,268.5c64,84.3,184.2,100.8,268.5,36.8c47.7-36.2,75.8-92.7,75.8-152.7
	C404.5,179.9,378.4,153.8,346.3,153.8z M348.8,231.8h-17.5v-40h17.5c11,0,20,9,20,20C368.8,222.9,359.8,231.8,348.8,231.8z"/>
<g>
	<path class="st1" d="M375.6,130.4v-8.6h-3.2v-1.2h7.7v1.2h-3.2v8.6H375.6z"/>
	<path class="st1" d="M381.4,130.4v-9.8h1.9l2.3,6.9c0.2,0.6,0.4,1.1,0.5,1.4c0.1-0.4,0.3-0.9,0.5-1.6l2.3-6.8h1.7v9.8h-1.2v-8.2
		l-2.8,8.2h-1.2l-2.8-8.3v8.3H381.4z"/>
</g>
</svg>
